<?xml version="1.0" encoding="UTF-8" standalone="no"?>
<!DOCTYPE svg PUBLIC "-//W3C//DTD SVG 1.1//EN"
 "http://www.w3.org/Graphics/SVG/1.1/DTD/svg11.dtd">
<!-- Generated by graphviz version 2.43.0 (0)
 -->
<!-- Title: G Pages: 1 -->
<svg width="355pt" height="260pt"
 viewBox="0.00 0.00 354.64 260.00" xmlns="http://www.w3.org/2000/svg" xmlns:xlink="http://www.w3.org/1999/xlink">
<g id="graph0" class="graph" transform="scale(1 1) rotate(0) translate(4 256)">
<title>G</title>
<polygon fill="white" stroke="transparent" points="-4,4 -4,-256 350.64,-256 350.64,4 -4,4"/>
<!-- main -->
<g id="node1" class="node">
<title>main</title>
<ellipse fill="none" stroke="black" cx="183.59" cy="-234" rx="33.6" ry="18"/>
<text text-anchor="middle" x="183.59" y="-230.3" font-family="Times,serif" font-size="14.00">main</text>
</g>
<!-- parse -->
<g id="node2" class="node">
<title>parse</title>
<ellipse fill="none" stroke="black" cx="133.59" cy="-162" rx="36.29" ry="18"/>
<text text-anchor="middle" x="133.59" y="-158.3" font-family="Times,serif" font-size="14.00">parse</text>
</g>
<!-- main&#45;&gt;parse -->
<g id="edge1" class="edge">
<title>main&#45;&gt;parse</title>
<path fill="none" stroke="black" d="M172,-216.76C165.75,-208.02 157.92,-197.05 150.96,-187.31"/>
<polygon fill="black" stroke="black" points="153.79,-185.25 145.13,-179.15 148.09,-189.32 153.79,-185.25"/>
</g>
<!-- init -->
<g id="node4" class="node">
<title>init</title>
<ellipse fill="none" stroke="black" cx="67.59" cy="-90" rx="27" ry="18"/>
<text text-anchor="middle" x="67.59" y="-86.3" font-family="Times,serif" font-size="14.00">init</text>
</g>
<!-- main&#45;&gt;init -->
<g id="edge3" class="edge">
<title>main&#45;&gt;init</title>
<path fill="none" stroke="black" d="M154.81,-224.07C133.38,-215.95 105.1,-201.85 88.59,-180 72.62,-158.84 68.55,-127.42 67.65,-108.12"/>
</g>
<!-- cleanup -->
<g id="node5" class="node">
<title>cleanup</title>
<ellipse fill="none" stroke="black" cx="234.59" cy="-162" rx="46.59" ry="18"/>
<text text-anchor="middle" x="234.59" y="-158.3" font-family="Times,serif" font-size="14.00">cleanup</text>
</g>
<!-- main&#45;&gt;cleanup -->
<g id="edge4" class="edge">
<title>main&#45;&gt;cleanup</title>
<path fill="none" stroke="black" d="M195.42,-216.76C201.7,-208.14 209.56,-197.36 216.58,-187.73"/>
<polygon fill="black" stroke="black" points="219.42,-189.78 222.48,-179.63 213.76,-185.65 219.42,-189.78"/>
</g>
<!-- printf -->
<g id="node7" class="node">
<title>printf</title>
<ellipse fill="none" stroke="black" cx="309.59" cy="-18" rx="37.09" ry="18"/>
<text text-anchor="middle" x="309.59" y="-14.3" font-family="Times,serif" font-size="14.00">printf</text>
</g>
<!-- main&#45;&gt;printf -->
<g id="edge8" class="edge">
<title>main&#45;&gt;printf</title>
<path fill="none" stroke="black" d="M214.22,-226.34C239.02,-219.24 272.67,-205.41 290.59,-180 318.62,-140.25 317.47,-80.81 313.76,-46.37"/>
<polygon fill="black" stroke="black" points="317.19,-45.62 312.5,-36.12 310.25,-46.47 317.19,-45.62"/>
</g>
<!-- execute -->
<g id="node3" class="node">
<title>execute</title>
<ellipse fill="none" stroke="black" cx="181.59" cy="-90" rx="46.59" ry="18"/>
<text text-anchor="middle" x="181.59" y="-86.3" font-family="Times,serif" font-size="14.00">execute</text>
</g>
<!-- parse&#45;&gt;execute -->
<g id="edge2" class="edge">
<title>parse&#45;&gt;execute</title>
<path fill="none" stroke="black" d="M144.73,-144.76C150.58,-136.23 157.88,-125.58 164.44,-116.02"/>
<polygon fill="black" stroke="black" points="167.42,-117.86 170.19,-107.63 161.65,-113.9 167.42,-117.86"/>
</g>
<!-- make_string -->
<g id="node6" class="node">
<title>make_string</title>
<ellipse fill="none" stroke="black" cx="67.59" cy="-18" rx="67.69" ry="18"/>
<text text-anchor="middle" x="67.59" y="-14.3" font-family="Times,serif" font-size="14.00">make_string</text>
</g>
<!-- execute&#45;&gt;make_string -->
<g id="edge5" class="edge">
<title>execute&#45;&gt;make_string</title>
<path fill="none" stroke="black" d="M157.7,-74.33C141.68,-64.49 120.34,-51.39 102.44,-40.4"/>
<polygon fill="black" stroke="black" points="103.8,-37.12 93.44,-34.87 100.13,-43.09 103.8,-37.12"/>
</g>
<!-- execute&#45;&gt;printf -->
<g id="edge6" class="edge">
<title>execute&#45;&gt;printf</title>
<path fill="none" stroke="black" d="M207.5,-74.83C227.57,-63.86 255.5,-48.58 277.07,-36.79"/>
<polygon fill="black" stroke="black" points="278.79,-39.83 285.89,-31.96 275.44,-33.69 278.79,-39.83"/>
</g>
<!-- compare -->
<g id="node8" class="node">
<title>compare</title>
<ellipse fill="none" stroke="black" cx="203.59" cy="-18" rx="50.89" ry="18"/>
<text text-anchor="middle" x="203.59" y="-14.3" font-family="Times,serif" font-size="14.00">compare</text>
</g>
<!-- execute&#45;&gt;compare -->
<g id="edge9" class="edge">
<title>execute&#45;&gt;compare</title>
<path fill="none" stroke="black" d="M186.92,-72.05C189.37,-64.26 192.34,-54.82 195.08,-46.08"/>
<polygon fill="black" stroke="black" points="198.51,-46.86 198.16,-36.28 191.83,-44.77 198.51,-46.86"/>
</g>
<!-- init&#45;&gt;make_string -->
<g id="edge7" class="edge">
<title>init&#45;&gt;make_string</title>
<path fill="none" stroke="black" d="M67.59,-71.7C67.59,-63.98 67.59,-54.71 67.59,-46.11"/>
<polygon fill="black" stroke="black" points="71.09,-46.1 67.59,-36.1 64.09,-46.1 71.09,-46.1"/>
</g>
</g>
</svg>
