<?xml version="1.0" encoding="UTF-8" standalone="no"?>
<!DOCTYPE svg PUBLIC "-//W3C//DTD SVG 1.1//EN"
 "http://www.w3.org/Graphics/SVG/1.1/DTD/svg11.dtd">
<!-- Generated by graphviz version 2.43.0 (0)
 -->
<!-- Title: G Pages: 1 -->
<svg width="137pt" height="127pt"
 viewBox="0.00 0.00 136.71 127.19" xmlns="http://www.w3.org/2000/svg" xmlns:xlink="http://www.w3.org/1999/xlink">
<g id="graph0" class="graph" transform="scale(1 1) rotate(0) translate(4 123.19)">
<title>G</title>
<polygon fill="white" stroke="transparent" points="-4,4 -4,-123.19 132.71,-123.19 132.71,4 -4,4"/>
<!-- n0 -->
<g id="node1" class="node">
<title>n0</title>
<polygon fill="skyblue" stroke="black" points="35,-66.04 0,-66.04 0,-37.04 35,-37.04 35,-66.04"/>
<text text-anchor="middle" x="17.5" y="-47.84" font-family="Times,serif" font-size="14.00">n0</text>
</g>
<!-- n1 -->
<g id="node2" class="node">
<title>n1</title>
<polygon fill="skyblue" stroke="black" points="128.71,-68.26 93.71,-68.26 93.71,-39.26 128.71,-39.26 128.71,-68.26"/>
<text text-anchor="middle" x="111.21" y="-50.06" font-family="Times,serif" font-size="14.00">n1</text>
</g>
<!-- n0&#45;&#45;n1 -->
<g id="edge1" class="edge">
<title>n0&#45;&#45;n1</title>
<path fill="none" stroke="black" d="M35.13,-51.96C51.88,-52.35 76.93,-52.95 93.66,-53.35"/>
</g>
<!-- n2 -->
<g id="node3" class="node">
<title>n2</title>
<polygon fill="skyblue" stroke="black" points="85.41,-29 50.41,-29 50.41,0 85.41,0 85.41,-29"/>
<text text-anchor="middle" x="67.91" y="-10.8" font-family="Times,serif" font-size="14.00">n2</text>
</g>
<!-- n1&#45;&#45;n2 -->
<g id="edge2" class="edge">
<title>n1&#45;&#45;n2</title>
<path fill="none" stroke="black" d="M95.09,-39.14C91.43,-35.83 87.55,-32.31 83.9,-29"/>
</g>
<!-- n3 -->
<g id="node4" class="node">
<title>n3</title>
<polygon fill="skyblue" stroke="black" points="58.74,-119.19 23.74,-119.19 23.74,-90.19 58.74,-90.19 58.74,-119.19"/>
<text text-anchor="middle" x="41.24" y="-100.99" font-family="Times,serif" font-size="14.00">n3</text>
</g>
<!-- n2&#45;&#45;n3 -->
<g id="edge3" class="edge">
<title>n2&#45;&#45;n3</title>
<path fill="none" stroke="black" d="M63.51,-29.39C58.54,-46.21 50.5,-73.38 45.56,-90.08"/>
</g>
<!-- n3&#45;&#45;n0 -->
<g id="edge4" class="edge">
<title>n3&#45;&#45;n0</title>
<path fill="none" stroke="black" d="M34.75,-90.17C31.4,-82.67 27.33,-73.54 23.98,-66.05"/>
</g>
</g>
</svg>
